<svg  viewBox="0 0 99.999995 99.999995"  xmlns="http://www.w3.org/2000/svg"><path d="M64.412 30.393a2.5 2.5 0 0 0-2.473 2.525l-.175 44.9a2.5 2.5 0 1 0 5 .02l.175-44.9a2.5 2.5 0 0 0-2.527-2.545zm-14.351 0a2.5 2.5 0 0 0-2.473 2.525l-.176 44.9a2.5 2.5 0 1 0 5 .02l.176-44.9a2.5 2.5 0 0 0-2.527-2.545zm-13.877 0a2.5 2.5 0 0 0-2.473 2.525l-.176 44.9a2.5 2.5 0 1 0 5 .02l.176-44.9a2.5 2.5 0 0 0-2.527-2.545zM20 0C8.92 0 0 8.92 0 20v60c0 11.08 8.92 20 20 20h60c11.08 0 20-8.92 20-20V20c0-11.08-8.92-20-20-20H20zm23.49 14.924h13.02c.873 0 1.578.704 1.578 1.578v3.031h16.994a1.85 1.85 0 0 1 1.856 1.856v2.914a1.85 1.85 0 0 1-1.856 1.855H24.918a1.85 1.85 0 0 1-1.855-1.855v-2.914a1.85 1.85 0 0 1 1.855-1.856h16.994v-3.031c0-.874.705-1.578 1.578-1.578zM26.488 28.232h47.024v48.89a7.938 7.938 0 0 1-7.955 7.954H34.443a7.938 7.938 0 0 1-7.955-7.955V28.232z" style="line-height:normal;text-indent:0;text-align:start;text-decoration-line:none;text-decoration-style:solid;text-decoration-color:#000;text-transform:none;block-progression:tb;isolation:auto;mix-blend-mode:normal" color="#000" font-weight="400" font-family="sans-serif" white-space="normal" overflow="visible" fill-rule="evenodd"/></svg>
