<svg xmlns="http://www.w3.org/2000/svg" viewBox="0 0 377.341 377.341"><g fill="#010002"><path d="M200.631 236.439c-6.353 6.358-6.358 16.709 0 23.094 3.079 3.079 7.174 4.776 11.536 4.776s8.452-1.692 11.547-4.776l59.362-59.346c1.474-1.507 2.643-3.263 3.519-5.347a16.4 16.4 0 0 0 1.218-6.168c0-2.105-.408-4.172-1.273-6.315a16.343 16.343 0 0 0-3.514-5.227l-59.313-59.313a16.205 16.205 0 0 0-11.547-4.781 16.178 16.178 0 0 0-11.536 4.781c-6.364 6.364-6.364 16.72 0 23.083l31.449 31.449H16.317C7.321 172.35 0 179.677 0 188.668s7.321 16.317 16.317 16.317h215.762l-31.448 31.454z"/><path d="M322.95 42.531H139.452c-30.002 0-54.402 24.4-54.402 54.391l.033 57.698h3.263c2.986 3.987 7.74 6.587 13.032 6.587 5.45 0 10.231-2.605 13.184-6.668l3.138-.044V96.921c0-11.982 9.758-21.74 21.751-21.74H322.95c11.988 0 21.751 9.758 21.751 21.74v183.503c0 11.993-9.763 21.74-21.751 21.74H139.452c-11.993 0-21.751-9.747-21.751-21.74l-.027-57.725H114.4c-2.986-3.981-7.74-6.57-13.027-6.57-5.325 0-10.106 2.627-13.086 6.663l-3.242.049v57.583c0 29.986 24.4 54.385 54.402 54.385H322.95c29.996 0 54.391-24.4 54.391-54.385V96.921c0-29.991-24.395-54.39-54.391-54.39z"/></g></svg>